PathFileType  4	(X/Y/Z) C:\Users\antoi\Documents\MyRepositories\mobilecap\ResultsAnalysis
DataRate	CameraRate	NumFrames	NumMarkers	Units	OrigDataRate	OrigDataStartFrame	OrigNumFrames
100.0	100.0	5	51	mm	100.0	66	130
Frame#	Time	r_knee			r_shank_antsup			r_ankle			r_calc			r_5meta			r_toe			L_knee			L_shank_antsup			L_ankle			L_calc			L_5meta			L_toe			r_sh2			r_sh3			r_sh4			L_sh2			L_sh3			r_thigh1			r_thigh2			r_thigh3			r_thigh4			r_thigh5			L_thigh1			L_thigh2			L_thigh3			L_thigh4			r.ASIS			r.PSIS			L.ASIS			L.PSIS			C7			R_Shoulder			L_Shoulder			R_Sternum			L_Sternum			R_humerus			R_elbow_med			R_elbow_lat			R_forearm			R_wrist_radius			R_wrist_ulna			L_humerus			L_elbow_med			L_elbow_lat			L_forearm			L_wrist_radius			L_wrist_ulna			R_HJC			L_HJC			R_HJC_reg			L_HJC_reg			
		X1	Y1	Z1	X2	Y2	Z2	X3	Y3	Z3	X4	Y4	Z4	X5	Y5	Z5	X6	Y6	Z6	X7	Y7	Z7	X8	Y8	Z8	X9	Y9	Z9	X10	Y10	Z10	X11	Y11	Z11	X12	Y12	Z12	X13	Y13	Z13	X14	Y14	Z14	X15	Y15	Z15	X16	Y16	Z16	X17	Y17	Z17	X18	Y18	Z18	X19	Y19	Z19	X20	Y20	Z20	X21	Y21	Z21	X22	Y22	Z22	X23	Y23	Z23	X24	Y24	Z24	X25	Y25	Z25	X26	Y26	Z26	X27	Y27	Z27	X28	Y28	Z28	X29	Y29	Z29	X30	Y30	Z30	X31	Y31	Z31	X32	Y32	Z32	X33	Y33	Z33	X34	Y34	Z34	X35	Y35	Z35	X36	Y36	Z36	X37	Y37	Z37	X38	Y38	Z38	X39	Y39	Z39	X40	Y40	Z40	X41	Y41	Z41	X42	Y42	Z42	X43	Y43	Z43	X44	Y44	Z44	X45	Y45	Z45	X46	Y46	Z46	X47	Y47	Z47	X48	Y48	Z48	X49	Y49	Z49	X50	Y50	Z50	X51	Y51	Z51	

66	0.65000000	495.34496	517.77304	-36.11637	469.19651	413.21874	-47.79609	205.63007	198.05531	-94.37163	108.29975	204.47615	-142.68282	249.88390	57.61580	-74.34312	313.11964	60.85357	-140.51903	729.92620	523.35784	-338.24862	761.08536	436.89932	-353.46896	839.50479	116.05443	-278.66983	781.40329	67.06383	-218.73554	969.33499	65.78338	-306.53345	1019.81469	114.12906	-248.94003	384.94937	339.06472	-33.24922	428.44674	465.07792	-9.92988	331.46571	401.41475	-14.01868	674.99727	412.98774	-345.91741	722.70683	300.36606	-331.14694	619.94567	824.55630	-9.14018	615.78070	715.22323	-16.73139	556.03284	693.03470	5.99760	507.11457	826.81964	-5.81501	504.47764	713.39492	-11.84647	710.94845	821.75047	-360.51012	760.58475	691.40320	-341.12548	611.54508	779.19434	-379.30784	656.98542	652.23025	-364.73111	655.57360	1049.83289	-53.72515	474.09267	1047.40527	-135.28582	660.60797	1046.71274	-308.39894	473.04906	1044.14696	-245.60376	553.10748	1604.04759	-196.34870	618.82192	1527.04110	-37.29002	556.98777	1524.33697	-370.47997	656.42434	1490.15515	-180.89536	645.48196	1488.16595	-237.68307	649.04364	1382.71661	38.15372	605.96065	1164.07398	39.16587	630.42179	1201.33945	115.71061	782.47574	1112.61881	112.34265	869.03429	1077.37837	86.72810	842.92609	1053.39318	117.19546	478.11721	1407.08407	-426.80431	371.84944	1221.15398	-299.74057	356.89876	1220.25517	-380.26946	353.43213	1146.74985	-402.81553	309.17802	972.08767	-382.49283	270.93716	988.06382	-383.96319	585.08706	926.93464	-79.05019	586.91613	929.79833	-285.98372	604.71849	963.70426	-86.66061	603.13091	958.73258	-254.69772	
67	0.66000000	522.12619	515.69310	-33.98316	492.93446	412.35353	-44.82628	222.18636	207.56313	-93.10254	127.31429	222.67501	-142.13880	253.85166	63.26963	-74.91114	317.94701	61.68655	-139.97719	742.36340	524.04519	-340.19308	772.04625	436.80360	-355.34268	843.70373	115.10292	-279.23482	783.39391	68.32145	-218.80830	971.60689	60.60391	-306.97284	1023.94327	107.37326	-249.49247	405.45421	341.43057	-31.04612	453.43272	465.90931	-8.08545	354.04878	405.83004	-13.24614	685.26462	414.40723	-348.41656	731.33456	301.18037	-333.00989	639.36579	824.91427	-10.14299	637.64291	715.50553	-15.85214	578.37177	692.18703	6.92578	526.70634	824.78060	-6.70540	526.73187	711.50018	-11.16924	725.83461	823.16391	-361.42968	774.59929	692.50090	-342.10236	626.49175	781.22354	-381.83563	671.21594	654.07563	-367.15064	671.63010	1050.10658	-55.37199	490.09683	1047.78049	-136.09986	676.37255	1048.32748	-309.79952	488.81449	1045.73803	-246.53596	567.90260	1604.87645	-198.10064	633.22320	1527.83671	-38.62983	572.76751	1525.16569	-372.23426	671.37910	1491.28603	-182.27012	660.71586	1489.32069	-239.07091	661.80532	1382.68363	36.74362	616.48507	1164.42310	36.28165	640.63372	1201.06459	113.27904	791.70838	1110.83480	110.90990	878.23153	1075.14845	86.02003	851.63129	1050.97716	115.86611	494.94994	1407.29468	-428.85837	389.32614	1221.01000	-301.79488	374.48797	1220.03294	-382.40090	371.46052	1146.50439	-404.89559	328.08160	971.60138	-384.69693	289.73873	987.39444	-386.14467	601.24102	927.24868	-81.03802	602.58058	931.38481	-287.94744	621.21546	963.44881	-89.09868	619.26840	960.33471	-257.00066	
68	0.67000000	550.29095	513.61937	-31.79370	518.10805	411.63899	-41.99139	240.79970	217.28496	-91.71578	149.57335	241.45401	-141.43632	258.96430	70.21265	-75.51018	323.92919	63.38275	-139.04216	754.40019	525.09880	-342.27648	782.45885	436.98349	-357.47182	847.19510	114.43157	-279.91106	784.83829	69.29981	-218.93202	973.27933	56.37303	-307.65481	1027.28114	101.56081	-250.26906	427.90904	343.84982	-28.77645	479.90631	466.72738	-6.11128	378.46280	410.03898	-12.27757	695.07199	416.19297	-351.07669	739.17333	302.40944	-335.06143	658.79905	825.44680	-11.00024	659.79230	716.04350	-14.90765	601.11567	691.42273	7.96715	546.34032	822.63503	-7.50246	549.36192	709.52893	-10.33580	740.12231	824.96324	-362.92395	788.26856	694.09285	-343.60004	640.84796	783.44847	-384.52445	685.05551	656.20894	-369.70757	687.23980	1050.41029	-56.98581	505.68272	1048.30920	-136.69139	691.63961	1050.24727	-311.24990	504.12764	1047.57435	-247.24698	582.67453	1605.87151	-199.77039	647.62628	1528.86829	-39.88209	588.60517	1526.17387	-373.89735	686.24963	1492.56169	-183.53884	675.85593	1490.60592	-240.31588	674.48003	1382.81995	35.30809	626.70812	1165.07048	33.17149	650.50131	1200.98115	110.66171	800.30319	1108.79188	109.47907	886.71702	1072.38371	85.45492	859.49936	1048.12573	114.62100	512.09172	1407.52594	-430.93508	407.11431	1220.75490	-304.12569	392.59862	1219.64307	-384.83581	390.20171	1146.09965	-407.27323	348.02900	970.85670	-387.27936	309.58092	986.39749	-388.80586	616.99403	927.63875	-83.06463	617.69867	933.26268	-289.93514	637.24326	963.29236	-91.58390	634.88498	962.16973	-259.39165	
69	0.68000000	579.59182	511.70985	-29.73457	544.63942	411.18472	-39.51764	261.31557	227.01732	-90.22866	174.76965	260.11661	-140.62960	265.76883	78.30061	-76.04170	331.59782	66.05161	-137.64909	765.81067	526.40454	-344.33782	792.32792	437.41181	-359.61002	850.04725	114.01408	-280.54085	785.78811	70.02759	-219.08121	974.47508	53.19799	-308.31246	1029.87089	96.73021	-250.87946	452.21580	346.28389	-26.58475	507.73292	467.57592	-4.11421	404.56973	413.99174	-11.09694	704.39752	418.26903	-353.83108	746.30678	303.93545	-337.21549	678.09654	826.19381	-11.74739	682.03920	716.88996	-14.04185	624.06753	690.82350	8.98851	565.88107	820.47695	-8.25531	572.13295	707.54089	-9.51364	753.77388	826.94350	-365.08149	801.41426	695.90592	-345.70463	654.44427	785.80617	-387.13716	698.15485	658.48365	-372.19879	702.35326	1050.75442	-58.53479	520.79043	1048.98769	-137.08457	706.43120	1052.42982	-312.71983	518.99101	1049.60591	-247.74595	597.39819	1607.03974	-201.33920	662.01998	1530.10680	-41.03007	604.46474	1527.33791	-375.44164	701.02283	1493.96689	-184.68284	690.88612	1491.99725	-241.40256	687.06514	1383.10795	33.85611	636.66695	1166.00466	29.86793	660.04415	1201.08239	107.88083	808.29358	1106.52693	108.04212	894.51156	1069.11526	85.00061	866.56415	1044.89526	113.44401	529.49703	1407.77781	-432.99059	425.15329	1220.36106	-306.72535	411.17160	1219.06879	-387.55726	409.60204	1145.52498	-409.93794	368.99122	969.85231	-390.23892	330.42501	985.06066	-391.93304	632.29765	928.11133	-85.08911	632.28257	935.38812	-291.90394	652.72005	963.26523	-94.07896	649.99330	964.19813	-261.83404	
70	0.69000000	609.71426	510.16447	-27.97153	572.40277	411.08933	-37.62524	283.52693	236.56956	-88.70544	202.23793	277.83856	-139.81671	275.00942	87.23581	-76.34200	341.64681	69.73261	-135.80331	776.40708	527.84319	-346.22828	801.63152	438.04698	-361.52629	852.33810	113.81357	-281.01547	786.34265	70.55184	-219.23418	975.30932	51.06338	-308.78731	1031.78660	92.86022	-251.10824	478.19708	348.74047	-24.63909	536.76075	468.52808	-2.22466	432.18017	417.68096	-9.69252	713.20739	420.53560	-356.53389	752.82626	305.63910	-339.33454	697.16146	827.22159	-12.44992	704.23486	718.11597	-13.40787	647.06870	690.49809	9.84263	585.25817	818.42665	-9.03110	594.86797	705.63469	-8.89423	766.78303	828.88611	-367.85581	813.84499	697.64291	-348.39472	667.16949	788.24842	-389.45338	710.21459	660.77176	-374.45217	716.94898	1051.19107	-59.99365	535.38906	1049.81865	-137.34442	720.79691	1054.83393	-314.16183	533.43405	1051.79185	-248.07878	612.04786	1608.39488	-202.79252	676.37933	1531.52992	-42.05847	620.29697	1528.64103	-376.84261	715.68570	1495.50006	-185.68226	705.79509	1493.49131	-242.32112	699.54333	1383.54537	32.40959	646.41063	1167.21162	26.40327	669.29751	1201.35876	104.95414	815.72814	1104.07805	106.58939	901.64494	1065.37814	84.62025	872.86364	1041.34110	112.30866	547.12025	1408.05383	-434.98684	443.39850	1219.80263	-309.57798	430.15284	1218.30550	-390.54630	429.61007	1144.77848	-412.87335	390.94301	968.59998	-393.57162	352.22787	983.38748	-395.50555	647.12964	928.70159	-87.06807	646.39322	937.71911	-293.81140	667.61365	963.41039	-96.54922	664.65244	966.39861	-264.27997	
